<?xml version="1.0" encoding="UTF-8"?>
<svg viewBox="0 0 480 480" fill="none" xmlns="http://www.w3.org/2000/svg" version="1.2" baseProfile="tiny-ps"><title>W_monogram_dark</title><rect width="480" height="480" fill="#1A1720"/><path d="M88.6 104.6l57 142.9 12.9 28.6 29.9-74.9 23 63.5-50.6 125.8-120.8-285.9h48.6zM391.4 104.6l-57 142.9-12.9 28.6-29.9-74.9-22.9 63.5 50.5 125.8 120.8-285.9h-48.6z" fill="white"/><path d="M188.4 201.2l22.9 63.5-6.6 16.6-23.2-62.9 6.9-17.2z" fill="url(#paint0)"/><path d="M291.6 201.2l-22.9 63.5 6.6 16.6 23.2-62.9-6.9-17.2z" fill="url(#paint1)"/><path d="M239.9 90l40.2 99.8-22.8 63.1-17.3-43.1-17 43.1-23.1-63.1 40-99.8z" fill="url(#paint2)"/><defs><linearGradient id="paint0" x1="200.331" y1="235.541" x2="190.043" y2="239.914" gradientUnits="userSpaceOnUse"><stop stop-color="#2F009C"/><stop offset="1" stop-color="#00E6FF"/></linearGradient><linearGradient id="paint1" x1="279.669" y1="235.541" x2="289.957" y2="239.914" gradientUnits="userSpaceOnUse"><stop stop-color="#2F009C"/><stop offset="1" stop-color="#00E6FF"/></linearGradient><linearGradient id="paint2" x1="240" y1="90" x2="240" y2="252.92" gradientUnits="userSpaceOnUse"><stop stop-color="#DF04DB"/><stop offset="0.5" stop-color="#8302E5"/><stop offset="1" stop-color="#2024FF"/></linearGradient></defs></svg>